<?xml version="1.0" encoding="UTF-8"?>
<svg xmlns="http://www.w3.org/2000/svg" viewBox="0 0 1280 720" role="img"
     aria-label="OAS Studio. Optical Absorption Spectroscopy analyser with continual learning. 3-minute walkthrough.">
  <defs>
    <linearGradient id="bg" x1="0" y1="0" x2="1" y2="1">
      <stop offset="0%"   stop-color="#1e1b4b"/>
      <stop offset="38%"  stop-color="#3b2596"/>
      <stop offset="72%"  stop-color="#6d28d9"/>
      <stop offset="100%" stop-color="#a21caf"/>
    </linearGradient>
    <radialGradient id="glow1" cx="0.15" cy="0.12" r="0.55">
      <stop offset="0%"   stop-color="rgba(255,255,255,.28)"/>
      <stop offset="100%" stop-color="rgba(255,255,255,0)"/>
    </radialGradient>
    <radialGradient id="glow2" cx="0.9" cy="0.92" r="0.5">
      <stop offset="0%"   stop-color="rgba(249,115,22,.28)"/>
      <stop offset="100%" stop-color="rgba(249,115,22,0)"/>
    </radialGradient>
    <pattern id="dots" x="0" y="0" width="22" height="22" patternUnits="userSpaceOnUse">
      <circle cx="2" cy="2" r="1.1" fill="rgba(255,255,255,0.10)"/>
    </pattern>
    <linearGradient id="play" x1="0" y1="0" x2="1" y2="1">
      <stop offset="0%"   stop-color="#ffffff"/>
      <stop offset="100%" stop-color="#e0e7ff"/>
    </linearGradient>
    <style>
      .label    { font: 700 26px 'JetBrains Mono', monospace; fill:#fde68a; letter-spacing:.16em; text-transform:uppercase;}
      .title    { font: 900 120px Inter, system-ui, sans-serif; fill:#ffffff; letter-spacing:-0.025em; }
      .subtitle { font: 600 38px Inter, system-ui, sans-serif; fill:#e9d5ff; }
      .tag      { font: 700 22px 'JetBrains Mono', monospace; fill:#ffffff; letter-spacing:.10em; text-transform:uppercase; }
      .url      { font: 600 30px 'JetBrains Mono', monospace; fill:#fef3c7; letter-spacing:.04em;}
      .credit   { font: 600 24px Inter, sans-serif; fill:rgba(255,255,255,.78); }
      .small    { font: 600 20px Inter, sans-serif; fill:rgba(255,255,255,.7); }
    </style>
  </defs>

  <!-- Background -->
  <rect width="1280" height="720" fill="url(#bg)"/>
  <rect width="1280" height="720" fill="url(#dots)"/>
  <rect width="1280" height="720" fill="url(#glow1)"/>
  <rect width="1280" height="720" fill="url(#glow2)"/>

  <!-- Live pill -->
  <g transform="translate(80,80)">
    <rect width="500" height="56" rx="28" fill="rgba(255,255,255,.14)" stroke="rgba(255,255,255,.32)"/>
    <circle cx="30" cy="28" r="9" fill="#34d399"/>
    <circle cx="30" cy="28" r="14" fill="none" stroke="#34d399" stroke-opacity=".4" stroke-width="2.5">
      <animate attributeName="r" values="9;18;9" dur="2s" repeatCount="indefinite"/>
      <animate attributeName="stroke-opacity" values="0.4;0;0.4" dur="2s" repeatCount="indefinite"/>
    </circle>
    <text x="58" y="37" class="label">live · 3-min walkthrough</text>
  </g>

  <!-- Title -->
  <text x="80" y="290" class="title">OAS Studio</text>
  <text x="80" y="350" class="subtitle">Optical Absorption Spectroscopy</text>
  <text x="80" y="395" class="subtitle">— grown by the community.</text>

  <!-- Tag pills -->
  <g transform="translate(80,440)">
    <g>
      <rect width="230" height="46" rx="23" fill="rgba(99,102,241,.30)" stroke="rgba(165,180,252,.6)"/>
      <text x="115" y="30" text-anchor="middle" class="tag">Linear · NNLS</text>
    </g>
    <g transform="translate(250,0)">
      <rect width="280" height="46" rx="23" fill="rgba(168,85,247,.32)" stroke="rgba(216,180,254,.6)"/>
      <text x="140" y="30" text-anchor="middle" class="tag">ML · ResNet101</text>
    </g>
    <g transform="translate(550,0)">
      <rect width="320" height="46" rx="23" fill="rgba(236,72,153,.28)" stroke="rgba(249,168,212,.6)"/>
      <text x="160" y="30" text-anchor="middle" class="tag">Continual learning</text>
    </g>
  </g>

  <!-- URLs -->
  <g transform="translate(80,580)">
    <text class="url">oas-spectrum-studio.streamlit.app</text>
    <text y="42" class="credit">github.com/jongchan1999/oas-spectrum-studio</text>
  </g>

  <!-- Credit bottom-right -->
  <text x="1200" y="690" text-anchor="end" class="small">2026 · Jongchan Kim</text>

  <!-- Play button (centre-right) -->
  <g transform="translate(900,360)">
    <circle r="120" fill="rgba(15,23,42,.42)" stroke="rgba(255,255,255,.35)" stroke-width="3"/>
    <circle r="120" fill="none" stroke="#f97316" stroke-width="3" stroke-dasharray="6 10" stroke-opacity=".6"/>
    <circle r="86" fill="url(#play)" opacity=".95"/>
    <!-- play triangle -->
    <polygon points="-26,-38 -26,38 38,0" fill="#1e1b4b"/>
  </g>

  <!-- Decorative spectrum trace at top -->
  <g transform="translate(0,0)" opacity=".22" fill="none" stroke="#fde68a" stroke-width="1.5">
    <polyline points="
      0,80    40,76    80,72    120,66   160,58    200,50    240,46    280,52
      320,64  360,76   400,72   440,60   480,44    520,32    560,28    600,32
      640,42  680,56   720,68   760,76   800,74    840,68    880,58    920,46
      960,38  1000,40  1040,50  1080,62  1120,72   1160,76   1200,74   1240,70   1280,68"/>
  </g>
</svg>
